HIERARCHY
ROOT Hips
{
    OFFSET 0.000000 0.000000 0.000000
    CHANNELS 6 Xposition Yposition Zposition Zrotation Xrotation Yrotation
    JOINT Spine
    {
        OFFSET -0.000000 7.236184 0.000000
        CHANNELS 3 Zrotation Xrotation Yrotation
        JOINT Spine1
        {
            OFFSET -0.000000 20.420147 0.000000
            CHANNELS 3 Zrotation Xrotation Yrotation
            JOINT Neck
            {
                OFFSET -0.000000 20.336288 1.848754
                CHANNELS 3 Zrotation Xrotation Yrotation
                JOINT Head
                {
                    OFFSET -0.000000 12.354461 -1.764923
                    CHANNELS 3 Zrotation Xrotation Yrotation
                    End Site
                    {
                        OFFSET -0.000000 22.061537 0.000000
                    }
                }
            }
            JOINT LeftShoulder
            {
                OFFSET 3.573296 18.396038 -0.314103
                CHANNELS 3 Zrotation Xrotation Yrotation
                JOINT LeftArm
                {
                    OFFSET 10.880760 0.000000 0.000000
                    CHANNELS 3 Zrotation Xrotation Yrotation
                    JOINT LeftForeArm
                    {
                        OFFSET 27.185530 0.000000 0.000000
                        CHANNELS 3 Zrotation Xrotation Yrotation
                        JOINT LeftHand
                        {
                            OFFSET 27.825975 0.000000 0.000000
                            CHANNELS 3 Zrotation Xrotation Yrotation
                            End Site
                            {
                                OFFSET 13.236923 0.000000 0.000000
                            }
                        }
                    }
                }
            }
            JOINT RightShoulder
            {
                OFFSET -3.474926 18.396038 -0.314103
                CHANNELS 3 Zrotation Xrotation Yrotation
                JOINT RightArm
                {
                    OFFSET -10.880760 0.000000 0.000000
                    CHANNELS 3 Zrotation Xrotation Yrotation
                    JOINT RightForeArm
                    {
                        OFFSET -27.185530 0.000000 0.000000
                        CHANNELS 3 Zrotation Xrotation Yrotation
                        JOINT RightHand
                        {
                            OFFSET -27.825975 0.000000 0.000000
                            CHANNELS 3 Zrotation Xrotation Yrotation
                            End Site
                            {
                                OFFSET -13.236923 0.000000 0.000000
                            }
                        }
                    }
                }
            }
        }
    }
    JOINT LeftUpLeg
    {
        OFFSET 8.824615 0.000000 0.000000
        CHANNELS 3 Zrotation Xrotation Yrotation
        JOINT LeftLeg
        {
            OFFSET -0.000000 -35.111282 0.000000
            CHANNELS 3 Zrotation Xrotation Yrotation
            JOINT LeftFoot
            {
                OFFSET -0.000000 -42.324711 0.000000
                CHANNELS 3 Zrotation Xrotation Yrotation
                JOINT LeftToeBase
                {
                    OFFSET -0.000000 -5.735999 13.236923
                    CHANNELS 3 Zrotation Xrotation Yrotation
                    End Site
                    {
                        OFFSET -0.000000 0.000000 3.529846
                    }
                }
            }
        }
    }
    JOINT RightUpLeg
    {
        OFFSET -8.824615 0.000000 0.000000
        CHANNELS 3 Zrotation Xrotation Yrotation
        JOINT RightLeg
        {
            OFFSET -0.000000 -35.111282 0.000000
            CHANNELS 3 Zrotation Xrotation Yrotation
            JOINT RightFoot
            {
                OFFSET -0.000000 -42.324711 0.000000
                CHANNELS 3 Zrotation Xrotation Yrotation
                JOINT RightToeBase
                {
                    OFFSET -0.000000 -5.735999 13.236923
                    CHANNELS 3 Zrotation Xrotation Yrotation
                    End Site
                    {
                        OFFSET -0.000000 0.000000 3.529846
                    }
                }
            }
        }
    }
}
MOTION
Frames:    9
Frame Time:    0.008333
5.965200    81.299736    111.400543    -0.145047    -10.310102    -175.572281    -3.360429    -10.540252    -0.126340    1.258198    7.204108    0.104832    1.894287    6.577483    -3.859215    6.763727    -10.569546    -2.613757    0.994895    16.281351    -4.282576    -40.450138    45.920055    -46.608280    1.338858    -4.027447    -16.174992    18.932274    -3.535238    1.817228    2.943477    17.495934    -1.885311    44.755501    47.836876    35.035641    -5.023527    -9.425158    20.031540    -18.342911    -8.052422    -3.102897    11.945050    -17.475536    1.666175    0.088966    15.251948    1.003046    -12.967436    -6.679530    -13.257593    0.076661    0.339008    -0.084924    -14.914120    -8.203852    -3.186968    3.875858    4.876259    -0.753381    10.379792    -4.372231    -13.711310    -0.803709    0.521074    0.868654    
5.966624    81.298737    111.399544    -0.131611    -10.317614    -175.566269    -3.354753    -10.520630    -0.119985    1.237398    7.209292    0.111263    1.908499    6.576612    -3.866262    6.749156    -10.563392    -2.626149    1.020091    16.254786    -4.296974    -40.444786    45.873810    -46.520931    1.307735    -4.002001    -16.143307    18.894524    -3.517507    1.803301    2.940153    17.484520    -1.862535    44.707676    47.857052    35.079659    -5.074016    -9.544031    20.305134    -18.375521    -8.142795    -3.145562    11.965462    -17.515350    1.751341    0.099568    15.306983    0.924975    -12.980812    -6.699272    -13.260679    0.081961    0.334133    -0.090796    -14.887398    -8.252141    -3.263589    3.841160    4.950410    -0.758347    10.394578    -4.382290    -13.632270    -0.803120    0.512804    0.868027    
5.967956    81.297699    111.398407    -0.117967    -10.325236    -175.559860    -3.348763    -10.501045    -0.113496    1.216011    7.215172    0.117907    1.922598    6.574919    -3.873518    6.735392    -10.557101    -2.638555    1.045479    16.228277    -4.311160    -40.438644    45.826244    -46.433475    1.276086    -3.976281    -16.111614    18.857925    -3.499639    1.788511    2.937383    17.473066    -1.839669    44.658653    47.878059    35.124294    -5.125840    -9.664604    20.583366    -18.407623    -8.234204    -3.187936    11.986299    -17.556385    1.840638    0.110950    15.364004    0.842316    -12.994333    -6.719929    -13.263268    0.087340    0.328941    -0.096756    -14.859385    -8.301304    -3.343481    3.803741    5.025759    -0.767407    10.411219    -4.391418    -13.546014    -0.802497    0.504436    0.867364    
5.969043    81.296692    111.397102    -0.104567    -10.332751    -175.552948    -3.342349    -10.482521    -0.107141    1.194364    7.222116    0.124529    1.936062    6.571775    -3.880690    6.723420    -10.551176    -2.650405    1.069739    16.202740    -4.323957    -40.432011    45.778824    -46.349350    1.245326    -3.951221    -16.081562    18.825043    -3.482278    1.773358    2.936356    17.462227    -1.817910    44.608971    47.899574    35.168564    -5.177685    -9.781832    20.856264    -18.437405    -8.322785    -3.227183    12.006843    -17.597885    1.933099    0.123130    15.422048    0.754841    -13.007371    -6.741353    -13.264359    0.092663    0.323187    -0.102654    -14.830214    -8.349851    -3.426009    3.762884    5.099986    -0.783461    10.430631    -4.398464    -13.450404    -0.802094    0.496556    0.866937    
5.969807    81.295662    111.395523    -0.091179    -10.340420    -175.545303    -3.335142    -10.464985    -0.100640    1.171685    7.230759    0.131163    1.948876    6.566846    -3.887921    6.713877    -10.546138    -2.661673    1.093326    16.177740    -4.335410    -40.425198    45.729771    -46.267075    1.214468    -3.926298    -16.052446    18.796400    -3.465200    1.756951    2.937347    17.451658    -1.796867    44.557831    47.921967    35.213394    -5.230785    -9.896788    21.128340    -18.464533    -8.409286    -3.262854    12.027492    -17.641005    2.031459    0.136434    15.482657    0.660278    -13.020080    -6.764006    -13.264165    0.097970    0.316661    -0.108534    -14.798594    -8.399220    -3.514529    3.715966    5.174987    -0.810483    10.454645    -4.402718    -13.338158    -0.801912    0.489123    0.866750    
5.970144    81.294594    111.393646    -0.077993    -10.348078    -175.536789    -3.327005    -10.448765    -0.094234    1.147898    7.241302    0.137742    1.961313    6.559982    -3.894951    6.706324    -10.542470    -2.672193    1.116015    16.153721    -4.345340    -40.419662    45.678970    -46.187408    1.183885    -3.901998    -16.024321    18.773117    -3.448729    1.739490    2.941072    17.441853    -1.776728    44.505188    47.944973    35.258900    -5.285146    -10.007098    21.394510    -18.487757    -8.491866    -3.293303    12.047783    -17.685190    2.133569    0.150575    15.545159    0.561107    -13.032070    -6.787623    -13.263110    0.103191    0.308967    -0.114321    -14.764403    -8.449043    -3.609738    3.662228    5.250337    -0.850102    10.483871    -4.403613    -13.207045    -0.801955    0.481858    0.866805    
5.969997    81.293472    111.391464    -0.064788    -10.355835    -175.527283    -3.317507    -10.433811    -0.087866    1.122378    7.254287    0.144267    1.973226    6.550486    -3.901773    6.701268    -10.540391    -2.681838    1.137984    16.130119    -4.353417    -40.415924    45.625717    -46.109425    1.153254    -3.878515    -15.996549    18.755264    -3.433198    1.720689    2.947987    17.431982    -1.757447    44.451077    47.968063    35.305485    -5.340697    -10.112042    21.655819    -18.506828    -8.569880    -3.317728    12.067960    -17.730982    2.238552    0.165153    15.610157    0.459188    -13.043601    -6.812108    -13.261894    0.108341    0.300361    -0.120027    -14.726705    -8.500357    -3.713842    3.599827    5.327439    -0.904583    10.519318    -4.400683    -13.052549    -0.802260    0.475078    0.867142    
5.969312    81.292236    111.388992    -0.051431    -10.363729    -175.516586    -3.306292    -10.420111    -0.081496    1.094619    7.270014    0.150507    1.985694    6.537738    -3.908110    6.697001    -10.539817    -2.690807    1.159621    16.106916    -4.359769    -40.415070    45.569229    -46.032513    1.122394    -3.856234    -15.968753    18.742661    -3.418966    1.700838    2.958511    17.422264    -1.738698    44.394958    47.990475    35.354118    -5.397445    -10.210837    21.910849    -18.521595    -8.642697    -3.335823    12.087934    -17.778669    2.344707    0.180029    15.677906    0.356753    -13.054634    -6.837382    -13.261179    0.113395    0.291054    -0.125629    -14.685182    -8.553684    -3.828203    3.528036    5.407065    -0.974591    10.561415    -4.393758    -12.872758    -0.802716    0.468572    0.867643    
5.968028    81.290863    111.386230    -0.037821    -10.371689    -175.504639    -3.293111    -10.407848    -0.075536    1.064368    7.289150    0.156684    1.998736    6.521554    -3.913769    6.693369    -10.541818    -2.698905    1.180879    16.083817    -4.364139    -40.417667    45.509743    -45.956139    1.092073    -3.835796    -15.940993    18.734221    -3.406524    1.680626    2.973001    17.411827    -1.720092    44.337524    48.011467    35.404434    -5.455048    -10.302513    22.157370    -18.531715    -8.709580    -3.346977    12.107635    -17.828432    2.450395    0.194886    15.748836    0.255728    -13.064993    -6.863641    -13.261331    0.118699    0.281179    -0.131507    -14.640012    -8.609007    -3.952425    3.447262    5.489427    -1.059286    10.609849    -4.383221    -12.668883    -0.803216    0.462065    0.868191    
